<svg width="18" height="18" viewBox="0 0 18 18" fill="none" xmlns="http://www.w3.org/2000/svg">
<path d="M2.99963 6V14.25C2.99963 14.6478 3.15768 15.0294 3.43901 15.3107C3.72033 15.592 4.1019 15.75 4.49975 15.75H5.99987M15.0006 6V14.25C15.0006 14.6478 14.8425 15.0294 14.5612 15.3107C14.2799 15.592 13.8983 15.75 13.5005 15.75H12.0004M11.2503 11.25L9.00011 9L6.74993 11.25M9.00011 9V15.75M2.24957 2.25H15.7507C16.1649 2.25 16.5007 2.58579 16.5007 3V5.25C16.5007 5.66421 16.1649 6 15.7507 6H2.24957C1.83532 6 1.49951 5.66421 1.49951 5.25V3C1.49951 2.58579 1.83532 2.25 2.24957 2.25Z" stroke="#A78BFA" stroke-width="1.8" stroke-linecap="round"/>
</svg>
