<svg width="50" height="50" viewBox="0 0 50 50" fill="none" xmlns="http://www.w3.org/2000/svg">
<path d="M25.0001 20.8333C23.3126 20.8333 17.8647 30.7083 18.6876 32.375C19.5105 34.0417 30.4897 34.0312 31.3126 32.375C32.1355 30.7187 26.698 20.8333 25.0001 20.8333Z" stroke="black" stroke-width="3" stroke-linecap="round" stroke-linejoin="round"/>
<path d="M25.0001 5.72917C19.9063 5.72917 3.47924 35.5 5.98966 40.5208C8.50008 45.5417 41.5417 45.4896 44.0209 40.5208C46.5001 35.5521 30.1042 5.72917 25.0001 5.72917ZM37.5001 36.1563C35.8751 39.4167 14.2188 39.4583 12.573 36.1563C10.9272 32.8542 21.6667 13.3646 25.0001 13.3646C28.3334 13.3646 39.0834 32.9063 37.5001 36.1563Z" stroke="black" stroke-width="3" stroke-linecap="round" stroke-linejoin="round"/>
</svg>
