<svg width="18" height="18" viewBox="0 0 18 18" fill="none" xmlns="http://www.w3.org/2000/svg">
<g clip-path="url(#clip0_14_949)">
<path d="M3.69639 14.3037C5.10302 15.7103 7.01083 16.5006 9.00011 16.5006H9.18763C9.43139 16.5006 9.67034 16.4327 9.8777 16.3046C10.0851 16.1764 10.2526 15.993 10.3617 15.775C10.4707 15.557 10.5168 15.3129 10.4949 15.0701C10.473 14.8273 10.384 14.5954 10.2377 14.4004L10.0127 14.1004C9.86643 13.9054 9.77737 13.6735 9.75548 13.4307C9.73358 13.1879 9.77973 12.9439 9.88875 12.7258C9.99776 12.5078 10.1653 12.3244 10.3727 12.1963C10.5801 12.0681 10.819 12.0002 11.0628 12.0002H12.7504C13.7451 12.0002 14.699 11.6051 15.4023 10.9018C16.1056 10.1985 16.5007 9.24457 16.5007 8.24993C16.5007 6.45957 15.7105 4.74255 14.3038 3.47658C12.8972 2.21061 10.9894 1.49939 9.00011 1.49939C7.01083 1.49939 5.10302 2.28963 3.69639 3.69626C2.28975 5.1029 1.49951 7.01071 1.49951 8.99999C1.49951 10.9893 2.28975 12.8971 3.69639 14.3037Z" stroke="white" stroke-opacity="0.698039" stroke-width="1.8" stroke-linecap="round"/>
</g>
<defs>
<clipPath id="clip0_14_949">
<rect width="18" height="18" fill="white"/>
</clipPath>
</defs>
</svg>
